<svg xmlns="http://www.w3.org/2000/svg" viewBox="0 0 438.78 83.67"><defs><style>.cls-1{fill:#c9c8c8;}</style></defs><title>quevedoAsset 1</title><g id="Layer_2" data-name="Layer 2"><g id="Layer_1-2" data-name="Layer 1"><path class="cls-1" d="M48.79,10.26c2.51,2.85,3.76,5,3.76,7.64a6.81,6.81,0,0,1-7.06,6.72,9.92,9.92,0,0,1-6.73-3.19c-3.19-2.85-5.36-4.1-9.58-4.1-6.27,0-9.57,3.3-9.57,7.64,0,3,1.25,6.27,7.86,8.77l3.77,1.37c18.81,7,25.42,13.91,25.42,24.51,0,16.19-16.08,24.05-29.3,24.05-8.66,0-17.78-3.3-23.71-9.8C2.39,72.39,0,69.31,0,65.44c0-3.54,2.28-7.19,7-7.19,3.77,0,6.27,2.4,8.1,4.79a16.19,16.19,0,0,0,12.2,5.47c4.78,0,11.85-1.71,11.85-8.89,0-5.13-3.19-7.86-11.85-11.28l-4.11-1.49C11.29,42.29,2.39,36.71,2.39,24.74,2.39,10.83,14,2.28,28.5,2.28,38.3,2.28,44.12,5.59,48.79,10.26Z"/><path class="cls-1" d="M125.85,31.46V75.35a8.45,8.45,0,0,1-8.43,8.21,8.25,8.25,0,0,1-8.32-8.09c-1.37,3.19-6.84,8.2-15.85,8.2-12.54,0-27.47-9.69-27.47-30.43,0-20.29,15-30.33,27.47-30.33,7.87,0,13.91,4.34,15.85,9v-.46a8.34,8.34,0,0,1,8.32-8.2A8.52,8.52,0,0,1,125.85,31.46ZM109.78,53.24c0-12-7.75-16.08-13.45-16.08-7,0-13.91,5.48-13.91,16.08s7,16.19,13.91,16.19C102,69.43,109.78,65.32,109.78,53.24Z"/><path class="cls-1" d="M161.54,20.41V23.6h8.09c4.1,0,6.73,2.73,6.73,6.5s-2.63,6.49-6.73,6.49h-8.09V75.35a8.33,8.33,0,0,1-16.65,0V36.59H141.7c-4.1,0-6.72-2.73-6.72-6.49s2.62-6.5,6.72-6.5h3.19V19.49C144.89,3.19,158.34,0,165.41,0a25.06,25.06,0,0,1,12.43,3c3,1.94,4.44,4,4.44,6.73a5.83,5.83,0,0,1-6.15,6,21.49,21.49,0,0,1-5-1.14,13.56,13.56,0,0,0-3.19-.57C161.65,14,161.54,19.49,161.54,20.41Z"/><path class="cls-1" d="M237.8,50.62c0,6.61-3.53,8.89-10.37,8.89l-31.24-.46c1.49,7.07,7.07,11,14.94,11,3.76,0,4.9-.57,8.21-1.71,2.27-.92,4-1.94,6.15-1.94a5.42,5.42,0,0,1,5.59,5.7c0,2-.8,4.33-4,6.84a29.79,29.79,0,0,1-16.65,4.56c-15.39,0-31.57-9.24-31.57-30s17.21-30.56,30.2-30.56S237.8,33.29,237.8,50.62Zm-41.61-2.74h25.2c-1.14-7.52-6.39-10.49-12.32-10.49S197.22,40.36,196.19,47.88Z"/><path class="cls-1" d="M307.23,2.74a8.53,8.53,0,0,1,8.43,8.66V74.56a8.55,8.55,0,1,1-17.1,0V50.84H266.3V74.56a8.55,8.55,0,1,1-17.1,0V11.4a8.55,8.55,0,1,1,17.1,0V36.25h32.26V11.4A8.59,8.59,0,0,1,307.23,2.74Z"/><path class="cls-1" d="M386,50.62c0,6.61-3.53,8.89-10.37,8.89l-31.24-.46c1.48,7.07,7.07,11,14.93,11,3.77,0,4.91-.57,8.21-1.71,2.28-.92,4-1.94,6.16-1.94a5.41,5.41,0,0,1,5.58,5.7c0,2-.79,4.33-4,6.84a29.77,29.77,0,0,1-16.64,4.56c-15.39,0-31.58-9.24-31.58-30s17.22-30.56,30.21-30.56S386,33.29,386,50.62Zm-41.61-2.74h25.19c-1.14-7.52-6.38-10.49-12.31-10.49S345.42,40.36,344.39,47.88Z"/><path class="cls-1" d="M438.78,30.67c0,4.56-3.53,7.75-10.6,7.75-8.55,0-13.79,6.5-14.14,10.49V75.24a8.32,8.32,0,0,1-16.64,0V31.69a8.32,8.32,0,1,1,16.64,0v4.56C414.5,32,421.45,23,431,23,436.16,23,438.78,26.56,438.78,30.67Z"/></g></g></svg>